<?xml version="1.0" encoding="utf-8"?>
<!-- Generator: Adobe Illustrator 26.0.2, SVG Export Plug-In . SVG Version: 6.00 Build 0)  -->
<svg version="1.1" id="ad793dc9-c366-4547-a149-3192ce12be47"
	 xmlns="http://www.w3.org/2000/svg" xmlns:xlink="http://www.w3.org/1999/xlink" x="0px" y="0px" viewBox="0 0 40 40"
	 style="enable-background:new 0 0 40 40;" xml:space="preserve">
<style type="text/css">
	.st0{fill:#161616;}
	.st1{fill:#008DED;}
</style>
<rect y="0" class="st0" width="40" height="40"/>
<path class="st1" d="M12.4,31.1c-0.2-0.1-0.5-0.2-0.6-0.5c-0.1-0.3-0.1-0.6-0.1-0.9c0.2-2.8,1.7-5.3,4.2-6.7c4-2.2,9-0.8,11.3,3.2
	c0.5,1,0.9,2,1,3.1c0,0.3,0.1,0.6,0.1,0.9c0.1,0.4-0.2,0.8-0.6,1l-0.1,0L12.4,31.1z"/>
<path class="st1" d="M14.5,14.5c0-3.1,2.5-5.5,5.5-5.5s5.5,2.5,5.5,5.5S23.1,20,20,20S14.5,17.5,14.5,14.5z"/>
</svg>
