<svg id="efc11cda-e7d8-4fb4-b22d-25e3ce917545" data-name="Layer 1" xmlns="http://www.w3.org/2000/svg" xmlns:xlink="http://www.w3.org/1999/xlink" viewBox="0 0 57.91 54.56"><defs><style>.ebcf7cd2-4587-42c6-bef7-3c87d9815692{opacity:0.26;}.f4bf1de1-4b66-42de-bdca-ccab2c6e7c37{fill:url(#e5434418-cf89-4383-819f-dbe4b376209f);}.b4dac1de-0ed9-4fcd-be3f-b83a38ab4789{fill:url(#bb701c75-eb76-44bb-9111-48175ae500ff);}.bab01c90-3198-420c-9513-003386bb13dd{fill:url(#e81e47f2-41ee-477b-84ef-9a9bcb3370aa);}.a3f5f911-370d-4b3d-b94e-565946c5d39e{fill:url(#bdc6207c-0753-4e9d-a327-df8adc9c7893);}</style><linearGradient id="e5434418-cf89-4383-819f-dbe4b376209f" x1="5.52" y1="36.09" x2="52.41" y2="36.09" gradientUnits="userSpaceOnUse"><stop offset="0" stop-color="#0083de"/><stop offset="1" stop-color="#0044a1"/></linearGradient><linearGradient id="bb701c75-eb76-44bb-9111-48175ae500ff" x1="5.5" y1="12.01" x2="52.41" y2="12.01" xlink:href="#e5434418-cf89-4383-819f-dbe4b376209f"/><linearGradient id="e81e47f2-41ee-477b-84ef-9a9bcb3370aa" x1="13.71" y1="6.17" x2="18.41" y2="6.17" xlink:href="#e5434418-cf89-4383-819f-dbe4b376209f"/><linearGradient id="bdc6207c-0753-4e9d-a327-df8adc9c7893" x1="39.52" y1="6.17" x2="44.22" y2="6.17" xlink:href="#e5434418-cf89-4383-819f-dbe4b376209f"/></defs><g class="ebcf7cd2-4587-42c6-bef7-3c87d9815692"><path class="f4bf1de1-4b66-42de-bdca-ccab2c6e7c37" d="M5.52,20.27H52.41V46.88a4.69,4.69,0,0,1-5,5H10.43A4.7,4.7,0,0,1,5.6,48.1,5.6,5.6,0,0,1,5.52,47V20.27ZM16.09,39c-.41,0-.81,0-1.21,0a2.29,2.29,0,0,0-2.32,2.34q0,1.16,0,2.31A2.3,2.3,0,0,0,14.86,46c.8,0,1.61,0,2.42,0a2.32,2.32,0,0,0,2.3-2.32q0-1.19,0-2.37A2.31,2.31,0,0,0,17.19,39C16.82,39,16.45,39,16.09,39ZM29,39h0c-.42,0-.84,0-1.26,0a2.32,2.32,0,0,0-2.28,2.34q0,1.13,0,2.25A2.32,2.32,0,0,0,27.75,46c.81,0,1.62,0,2.42,0a2.33,2.33,0,0,0,2.31-2.43c0-.73,0-1.46,0-2.2A2.32,2.32,0,0,0,30.09,39C29.72,39,29.36,39,29,39Zm16.38-9.36c0-.39,0-.77,0-1.15A2.32,2.32,0,0,0,43,26.11c-.79,0-1.58,0-2.36,0a2.32,2.32,0,0,0-2.33,2.3c0,.8,0,1.61,0,2.41a2.3,2.3,0,0,0,2.36,2.31q1.15,0,2.31,0a2.3,2.3,0,0,0,2.35-2.37C45.38,30.39,45.37,30,45.37,29.66ZM28.93,33.13h1.16a2.32,2.32,0,0,0,2.39-2.39c0-.73,0-1.47,0-2.2a2.33,2.33,0,0,0-2.31-2.43c-.8,0-1.61,0-2.41,0a2.33,2.33,0,0,0-2.31,2.43q0,1.13,0,2.25a2.31,2.31,0,0,0,2.28,2.34Zm-12.88,0H17.2a2.3,2.3,0,0,0,2.38-2.29c0-.81,0-1.62,0-2.42a2.32,2.32,0,0,0-2.32-2.31c-.8,0-1.61,0-2.41,0a2.3,2.3,0,0,0-2.29,2.38c0,.81,0,1.62,0,2.42a2.27,2.27,0,0,0,2.21,2.22ZM41.9,39h0c-.38,0-.77,0-1.15,0a2.33,2.33,0,0,0-2.41,2.33c0,.78,0,1.57,0,2.36A2.33,2.33,0,0,0,40.64,46c.83,0,1.65,0,2.47,0a2.31,2.31,0,0,0,2.26-2.36c0-.81,0-1.62,0-2.42A2.28,2.28,0,0,0,43.11,39C42.71,39,42.3,39,41.9,39Z"/><path class="b4dac1de-0ed9-4fcd-be3f-b83a38ab4789" d="M5.52,17.87V17c0-1.93.06-3.85,0-5.77a4.78,4.78,0,0,1,5.12-5.09h.77A5.2,5.2,0,0,0,13,10.89,4.49,4.49,0,0,0,16.08,12a4.58,4.58,0,0,0,3.67-1.79,5.5,5.5,0,0,0,1-4H37.19c0,.42,0,.85,0,1.28a4.66,4.66,0,0,0,6.91,4,4.54,4.54,0,0,0,2.44-3.91c0-.44,0-.87,0-1.3a4.8,4.8,0,0,1,5.86,4.85c0,2.08,0,4.17,0,6.26,0,.16,0,.32,0,.52Z"/><path class="bab01c90-3198-420c-9513-003386bb13dd" d="M18.41,6.12c0,.44,0,.88,0,1.31a2.34,2.34,0,0,1-2.15,2.25,2.22,2.22,0,0,1-2.46-1.93,15.27,15.27,0,0,1,0-3.17A2.22,2.22,0,0,1,16.2,2.66a2.33,2.33,0,0,1,2.2,2.2C18.42,5.27,18.4,5.7,18.41,6.12Z"/><path class="a3f5f911-370d-4b3d-b94e-565946c5d39e" d="M39.52,6.17c0-.42,0-.84,0-1.26a2.35,2.35,0,0,1,2.15-2.25,2.25,2.25,0,0,1,2.47,1.92,15.27,15.27,0,0,1,0,3.17,2.24,2.24,0,0,1-2.47,1.93,2.34,2.34,0,0,1-2.15-2.25C39.51,7,39.52,6.59,39.52,6.17Z"/></g></svg>