<?xml version="1.0" encoding="utf-8"?>
<!-- Generator: Adobe Illustrator 26.0.2, SVG Export Plug-In . SVG Version: 6.00 Build 0)  -->
<svg version="1.1" id="b49702f0-75f3-479d-8ede-df085f9576ee"
	 xmlns="http://www.w3.org/2000/svg" xmlns:xlink="http://www.w3.org/1999/xlink" x="0px" y="0px" viewBox="0 0 123.7 27.6"
	 style="enable-background:new 0 0 123.7 27.6;" xml:space="preserve">
<style type="text/css">
	.st0{enable-background:new    ;}
	.st1{fill:#FFFFFF;}
	.st2{fill:url(#SVGID_1_);}
</style>
<g class="st0">
	<path class="st1" d="M33.8,21.6h-1.6V6.1h1.6V21.6z M43.6,14.5h-10V13h10V14.5z M43.5,6.1h1.6v15.5h-1.6V6.1z"/>
	<path class="st1" d="M50.6,7.4c-0.3,0-0.6-0.1-0.8-0.3c-0.2-0.2-0.3-0.5-0.3-0.8s0.1-0.6,0.3-0.8c0.2-0.2,0.5-0.3,0.8-0.3
		s0.6,0.1,0.8,0.3c0.2,0.2,0.3,0.5,0.3,0.8c0,0.3-0.1,0.6-0.3,0.8C51.3,7.3,51,7.4,50.6,7.4z M49.8,21.6V10h1.6v11.6H49.8z"/>
</g>
<g class="st0">
	<path class="st1" d="M55.8,21.6V10h1.5v3.2l-0.2-0.6c0.3-0.9,0.9-1.6,1.6-2s1.7-0.7,2.9-0.7v1.5c-0.1,0-0.1,0-0.2,0
		c-0.1,0-0.1,0-0.2,0c-1.2,0-2.2,0.4-2.9,1.1c-0.7,0.7-1,1.8-1,3.2v5.9H55.8z"/>
</g>
<g class="st0">
	<path class="st1" d="M69.4,21.7c-1.2,0-2.3-0.3-3.2-0.8s-1.6-1.2-2.2-2.1c-0.5-0.9-0.8-1.9-0.8-3.1s0.2-2.2,0.7-3.1
		c0.5-0.9,1.2-1.6,2-2.1c0.9-0.5,1.8-0.8,2.9-0.8c1.1,0,2.1,0.2,2.9,0.7c0.8,0.5,1.5,1.2,2,2.1c0.5,0.9,0.7,1.9,0.7,3.1
		c0,0.1,0,0.2,0,0.2c0,0.1,0,0.2,0,0.3H64.4v-1.2h9.3l-0.6,0.5c0-0.8-0.2-1.6-0.5-2.3c-0.4-0.7-0.9-1.2-1.5-1.5
		c-0.6-0.4-1.3-0.6-2.2-0.6c-0.8,0-1.5,0.2-2.2,0.6c-0.6,0.4-1.1,0.9-1.5,1.6c-0.4,0.7-0.5,1.4-0.5,2.3v0.2c0,0.9,0.2,1.7,0.6,2.3
		s0.9,1.2,1.6,1.6c0.7,0.4,1.5,0.6,2.4,0.6c0.7,0,1.4-0.1,2-0.4c0.6-0.3,1.1-0.6,1.6-1.2l0.9,1c-0.5,0.6-1.2,1.1-1.9,1.4
		S70.3,21.7,69.4,21.7z"/>
	<path class="st1" d="M79.8,21.6h-1.6V6.1h1.6V21.6z M89.6,14.5h-10V13h10V14.5z M89.5,6.1h1.6v15.5h-1.6V6.1z"/>
	<path class="st1" d="M100.6,21.7c-1,0-1.9-0.2-2.6-0.6c-0.7-0.4-1.3-0.9-1.7-1.7c-0.4-0.7-0.6-1.7-0.6-2.8V10h1.6v6.6
		c0,1.2,0.3,2.2,0.9,2.8c0.6,0.6,1.5,0.9,2.6,0.9c0.8,0,1.5-0.2,2.1-0.5c0.6-0.3,1.1-0.8,1.4-1.5c0.3-0.6,0.5-1.4,0.5-2.3V10h1.6
		v11.6h-1.5v-3.2l0.2,0.6c-0.4,0.9-0.9,1.5-1.7,2C102.6,21.5,101.7,21.7,100.6,21.7z"/>
	<path class="st1" d="M110.7,21.6V5.2h1.6v8.3l-0.2,2.4l0.2,2.4v3.5H110.7z M116.8,21.7c-1,0-1.9-0.2-2.8-0.7s-1.5-1.1-1.9-2
		c-0.5-0.9-0.7-2-0.7-3.2c0-1.3,0.2-2.3,0.7-3.2s1.1-1.5,1.9-2c0.8-0.5,1.7-0.7,2.7-0.7c1.1,0,2.1,0.2,3,0.7
		c0.9,0.5,1.6,1.2,2.1,2.1c0.5,0.9,0.8,1.9,0.8,3.1c0,1.2-0.3,2.2-0.8,3.1c-0.5,0.9-1.2,1.6-2.1,2.1
		C118.9,21.5,117.9,21.7,116.8,21.7z M116.6,20.3c0.8,0,1.6-0.2,2.2-0.6c0.7-0.4,1.2-0.9,1.6-1.6c0.4-0.7,0.6-1.5,0.6-2.4
		c0-0.9-0.2-1.7-0.6-2.4c-0.4-0.7-0.9-1.2-1.6-1.6s-1.4-0.6-2.2-0.6s-1.6,0.2-2.2,0.6s-1.2,0.9-1.6,1.6c-0.4,0.7-0.6,1.5-0.6,2.4
		c0,0.9,0.2,1.7,0.6,2.4s0.9,1.2,1.6,1.6C115.1,20.1,115.8,20.3,116.6,20.3z"/>
</g>
<linearGradient id="SVGID_1_" gradientUnits="userSpaceOnUse" x1="1.73" y1="14.5476" x2="24.11" y2="14.5476" gradientTransform="matrix(1 0 0 -1 0 27.5276)">
	<stop  offset="0" style="stop-color:#0083DE"/>
	<stop  offset="1" style="stop-color:#0044A1"/>
</linearGradient>
<path class="st2" d="M19.4,24.2v-10h-4.1v8.1h-4.8v-8.2H6.5v5.7H1.7V6.1h4.7v5.7h4.1V3.6h4.8v8.1h4.1v-10h4.7v22.4H19.4z"/>
</svg>
