<?xml version="1.0" encoding="utf-8"?>
<!-- Generator: Adobe Illustrator 26.0.2, SVG Export Plug-In . SVG Version: 6.00 Build 0)  -->
<svg version="1.1" id="fc3d5323-af50-4978-a3d1-e78f5830b1f6"
	 xmlns="http://www.w3.org/2000/svg" xmlns:xlink="http://www.w3.org/1999/xlink" x="0px" y="0px" viewBox="0 0 159.7 159.7"
	 style="enable-background:new 0 0 159.7 159.7;" xml:space="preserve">
<style type="text/css">
	.st0{opacity:0.26;}
	.st1{fill:url(#SVGID_1_);}
	.st2{fill:url(#SVGID_00000052101705025390154040000007118005127262442631_);}
	.st3{fill:url(#SVGID_00000103242585372790682690000009269755246278305156_);}
	.st4{fill:url(#SVGID_00000116941522828044931170000006407670328553556404_);}
	.st5{fill:url(#SVGID_00000093165447728529679140000006018035823747402423_);}
	.st6{fill:url(#SVGID_00000076601843927300095790000003887697105577116064_);}
	.st7{fill:url(#SVGID_00000121988681239667824590000015407406134908797851_);}
	.st8{fill:url(#SVGID_00000059991264935784661130000007910123443004919460_);}
	.st9{fill:url(#SVGID_00000059290418906119978280000002141361993945198233_);}
	.st10{fill:url(#SVGID_00000087382983767048970680000013442842936996194223_);}
</style>
<g class="st0">
	<g>
		<linearGradient id="SVGID_1_" gradientUnits="userSpaceOnUse" x1="3.108" y1="79.3288" x2="155.2319" y2="79.3288">
			<stop  offset="0" style="stop-color:#0083DE"/>
			<stop  offset="1" style="stop-color:#0044A1"/>
		</linearGradient>
		<path class="st1" d="M128.7,137.1c-0.1,0.8-0.2,1.5-0.3,2.3c-0.7,3.6-3.7,6.2-7.3,6.3c-0.5,0-0.9,0-1.4,0c-35.9,0-71.8,0-107.7,0
			c-5.9,0-8.9-3.1-8.9-9c0-40.1,0-80.1,0-120.2c0-5.9,3.1-8.9,9-8.9c35.9,0,71.8,0,107.7,0c5.8,0,8.9,3.1,8.9,8.9
			c0,19.8,0,39.6,0,59.5c0,1.2,0.3,2.1,1,3.1c8.1,11,9.2,22.8,3.4,35.2c-0.5,1.1-0.5,1.7,0.4,2.6c6.4,6.3,12.7,12.6,19.1,19
			c3.5,3.6,3.7,8.7,0.5,12.2c-3.4,3.7-8.9,3.8-12.6,0.3c-3.5-3.4-6.9-6.9-10.4-10.4c-0.3-0.3-0.5-0.7-0.8-1.1
			C129,137,128.9,137,128.7,137.1z M123.8,73.2c0-0.9,0-1.4,0-1.9c0-18.2,0-36.4,0-54.7c0-0.5,0-0.9,0-1.4c-0.1-1.6-1.1-2.6-2.8-2.8
			c-0.6-0.1-1.1,0-1.7,0c-35.6,0-71.3,0-106.9,0c-0.7,0-1.5,0-2.2,0.1C9,12.8,8.2,13.7,8,15c-0.1,0.6-0.1,1.2-0.1,1.8
			c0,39.9,0,79.9,0,119.8c0,0.5,0,1,0,1.5c0.1,1.6,1.1,2.5,2.6,2.7c0.6,0.1,1.1,0.1,1.7,0.1c35.7,0,71.5,0,107.2,0
			c0.4,0,0.8,0,1.2,0c2-0.1,3-1.2,3.1-3.1c0-0.7-0.1-1.4,0-2c0.5-2.9-0.5-5-2.8-6.8c-0.8-0.6-1.3-0.9-2.4-0.4
			c-4.8,2.6-10,3.8-15.5,3.7c-19.9-0.3-34.9-17.6-32.5-37.3c2.4-19.4,21.5-32.4,40.5-27.8C115.8,68.3,119.8,70.3,123.8,73.2z
			 M131.9,99.5c0.1-15.6-12.6-28.3-28.2-28.4C88.1,71,75.3,83.7,75.2,99.2c-0.1,15.6,12.6,28.3,28.2,28.4
			C119.1,127.7,131.8,115.1,131.9,99.5z M124.3,125.7C124.2,125.5,124.2,125.6,124.3,125.7c6.4,6.4,12.9,12.9,19.3,19.3
			c0.2,0.2,0.4,0.3,0.6,0.5c1.3,0.9,2.7,1,4.1,0.3c1.4-0.7,2.3-2,2-3.5c-0.2-1.2-0.8-2.5-1.6-3.3c-6-6.1-12.1-12.2-18.2-18.3
			c-0.3-0.3-0.6-0.5-0.6-0.5C128,122,126.2,123.7,124.3,125.7z"/>
	</g>
	<g>
		
			<linearGradient id="SVGID_00000091697166895936673460000000652312723169800597_" gradientUnits="userSpaceOnUse" x1="17.9148" y1="44.3049" x2="58.0592" y2="44.3049">
			<stop  offset="0" style="stop-color:#0083DE"/>
			<stop  offset="1" style="stop-color:#0044A1"/>
		</linearGradient>
		<path style="fill:url(#SVGID_00000091697166895936673460000000652312723169800597_);" d="M29.7,44.9c-6.4-6.4-4.7-14.3-0.4-18.4
			c4.8-4.6,12.4-4.7,17.2-0.2c4.4,4,6.2,12.2-0.2,18.6c2.9,1.5,5.5,3.4,7.5,6c2.6,3.4,4,7.2,4.2,11.4c0.1,1.9-0.7,3.2-2.2,3.3
			c-1.5,0.1-2.4-1-2.6-3c-0.4-6.9-4.9-12.5-11.4-14.1c-9.1-2.3-17.9,3.7-19.1,13c-0.1,0.4-0.1,0.8-0.1,1.2c-0.2,2.1-1,3.1-2.6,3
			c-1.5-0.1-2.3-1.2-2.2-3.1c0.4-7.4,4-12.9,10.3-16.7C28.7,45.5,29.1,45.2,29.7,44.9z M30.2,35.4c0,4.3,3.4,7.8,7.7,7.8
			c4.3,0,7.8-3.4,7.8-7.7c0-4.3-3.4-7.8-7.7-7.8C33.7,27.7,30.3,31.1,30.2,35.4z"/>
	</g>
	<g>
		
			<linearGradient id="SVGID_00000096739581610051806110000004201625924515621540_" gradientUnits="userSpaceOnUse" x1="17.9234" y1="128.129" x2="73.6586" y2="128.129">
			<stop  offset="0" style="stop-color:#0083DE"/>
			<stop  offset="1" style="stop-color:#0044A1"/>
		</linearGradient>
		<path style="fill:url(#SVGID_00000096739581610051806110000004201625924515621540_);" d="M45.8,130.5c-8.1,0-16.2,0-24.3,0
			c-0.6,0-1.1,0-1.7-0.1c-1.1-0.2-1.8-1-1.9-2.2c-0.1-1.2,0.6-2.1,1.8-2.4c0.4-0.1,0.9-0.1,1.4-0.1c16.5,0,33,0,49.5,0
			c0.5,0,0.9,0,1.4,0.1c1.1,0.3,1.7,1.1,1.7,2.3c0,1.2-0.6,1.9-1.8,2.2c-0.5,0.1-1.1,0.1-1.7,0.1C62.1,130.5,53.9,130.5,45.8,130.5z
			"/>
	</g>
	<g>
		
			<linearGradient id="SVGID_00000071545177155336528330000002554322941850293150_" gradientUnits="userSpaceOnUse" x1="17.9218" y1="77.8471" x2="70.4776" y2="77.8471">
			<stop  offset="0" style="stop-color:#0083DE"/>
			<stop  offset="1" style="stop-color:#0044A1"/>
		</linearGradient>
		<path style="fill:url(#SVGID_00000071545177155336528330000002554322941850293150_);" d="M44.2,75.5c7.5,0,15,0,22.6,0
			c0.6,0,1.1,0,1.7,0.1c1.2,0.2,1.9,1,2,2.2c0.1,1.3-0.7,2.1-1.9,2.4c-0.5,0.1-1,0.1-1.5,0.1c-15.2,0-30.4,0-45.6,0
			c-0.6,0-1.3,0-1.8-0.2c-1.1-0.3-1.7-1.2-1.6-2.3c0.1-1.2,0.7-1.9,1.9-2.1c0.5-0.1,1.1-0.1,1.7-0.1C29.1,75.5,36.6,75.5,44.2,75.5z
			"/>
	</g>
	<g>
		
			<linearGradient id="SVGID_00000183930522005731175440000002331782682343134619_" gradientUnits="userSpaceOnUse" x1="17.9151" y1="111.3512" x2="66.7437" y2="111.3512">
			<stop  offset="0" style="stop-color:#0083DE"/>
			<stop  offset="1" style="stop-color:#0044A1"/>
		</linearGradient>
		<path style="fill:url(#SVGID_00000183930522005731175440000002331782682343134619_);" d="M42.4,109c7.1,0,14.1,0,21.2,0
			c0.6,0,1.2,0,1.7,0.2c1.1,0.4,1.6,1.3,1.5,2.4c-0.1,1.1-0.8,1.9-2,2.1c-0.4,0.1-0.8,0-1.2,0c-14.1,0-28.2,0-42.3,0
			c-0.4,0-0.7,0-1.1,0c-1.3-0.1-2.1-0.9-2.2-2.2c-0.1-1.2,0.8-2.3,2-2.5c0.5-0.1,0.9,0,1.4,0C28.4,109,35.4,109,42.4,109z"/>
	</g>
	<g>
		
			<linearGradient id="SVGID_00000044167276461992079000000006189633751073844653_" gradientUnits="userSpaceOnUse" x1="17.9036" y1="94.6102" x2="64.5924" y2="94.6102">
			<stop  offset="0" style="stop-color:#0083DE"/>
			<stop  offset="1" style="stop-color:#0044A1"/>
		</linearGradient>
		<path style="fill:url(#SVGID_00000044167276461992079000000006189633751073844653_);" d="M41.1,97c-6.8,0-13.6,0-20.4,0
			c-1.6,0-2.6-0.7-2.8-2.1c-0.2-1.5,0.9-2.6,2.5-2.6c3.3,0,6.6,0,9.9,0c10.2,0,20.4,0,30.6,0c0.5,0,1,0,1.5,0c1.3,0.1,2,1,2.1,2.2
			c0.1,1.2-0.9,2.2-2.1,2.4c-0.4,0-0.8,0-1.2,0C54.5,97,47.8,97,41.1,97z"/>
	</g>
	<g>
		
			<linearGradient id="SVGID_00000140697822008856109620000016872987394812188558_" gradientUnits="userSpaceOnUse" x1="68.9808" y1="27.5454" x2="113.8295" y2="27.5454">
			<stop  offset="0" style="stop-color:#0083DE"/>
			<stop  offset="1" style="stop-color:#0044A1"/>
		</linearGradient>
		<path style="fill:url(#SVGID_00000140697822008856109620000016872987394812188558_);" d="M91.6,25.2c6.2,0,12.4,0,18.6,0
			c0.5,0,1,0,1.5,0c1.3,0.1,2,0.9,2.1,2.2c0.1,1.2-0.8,2.3-2.1,2.4c-0.5,0.1-0.9,0-1.4,0c-12.6,0-25.3,0-37.9,0c-0.5,0-0.9,0-1.4,0
			c-1.3-0.2-2.2-1.2-2.1-2.5c0.1-1.3,0.9-2.1,2.2-2.2c0.5-0.1,1,0,1.5,0C79,25.2,85.3,25.2,91.6,25.2z"/>
	</g>
	<g>
		
			<linearGradient id="SVGID_00000119099524409290022230000015260201691363709857_" gradientUnits="userSpaceOnUse" x1="68.9771" y1="44.2947" x2="113.8362" y2="44.2947">
			<stop  offset="0" style="stop-color:#0083DE"/>
			<stop  offset="1" style="stop-color:#0044A1"/>
		</linearGradient>
		<path style="fill:url(#SVGID_00000119099524409290022230000015260201691363709857_);" d="M91.4,41.9c6.2,0,12.4,0,18.6,0
			c0.4,0,0.7,0,1.1,0c1.7,0,2.8,1,2.8,2.4c0,1.4-1.1,2.3-2.7,2.3c-2.1,0-4.2,0-6.3,0c-10.7,0-21.3,0-32,0c-0.5,0-1,0-1.5,0
			c-1.3-0.1-2.2-1.1-2.2-2.3c0-1.3,0.9-2.3,2.3-2.4c0.4,0,0.8,0,1.2,0C78.8,41.9,85.1,41.9,91.4,41.9z"/>
	</g>
	<g>
		
			<linearGradient id="SVGID_00000134952797234760513540000010213993529695625918_" gradientUnits="userSpaceOnUse" x1="68.9784" y1="61.0593" x2="93.3106" y2="61.0593">
			<stop  offset="0" style="stop-color:#0083DE"/>
			<stop  offset="1" style="stop-color:#0044A1"/>
		</linearGradient>
		<path style="fill:url(#SVGID_00000134952797234760513540000010213993529695625918_);" d="M81.2,58.7c3,0,6.1,0,9.1,0
			c1.8,0,3,1,3,2.4c0,1.4-1.1,2.3-2.9,2.3c-6.2,0-12.5,0-18.7,0c-1.8,0-2.8-1-2.8-2.4c0-1.4,1.1-2.3,2.8-2.4
			C75,58.7,78.1,58.7,81.2,58.7z"/>
	</g>
	<g>
		
			<linearGradient id="SVGID_00000015348621862428177740000003389266191320554168_" gradientUnits="userSpaceOnUse" x1="79.4892" y1="99.3627" x2="127.6476" y2="99.3627">
			<stop  offset="0" style="stop-color:#0083DE"/>
			<stop  offset="1" style="stop-color:#0044A1"/>
		</linearGradient>
		<path style="fill:url(#SVGID_00000015348621862428177740000003389266191320554168_);" d="M127.6,99.4c0,13.3-10.9,24.1-24.1,24
			c-13.4-0.1-24.1-10.9-24-24.3c0.1-13.2,10.9-23.9,24.3-23.8C117,75.4,127.7,86.2,127.6,99.4z M103.6,118.6
			c10.6,0,19.3-8.6,19.3-19.2c0-10.7-8.7-19.4-19.3-19.4c-10.6,0-19.3,8.7-19.3,19.3C84.2,109.9,92.9,118.6,103.6,118.6z"/>
	</g>
</g>
</svg>
